<svg id="svg" xmlns="http://www.w3.org/2000/svg" xmlns:xlink="http://www.w3.org/1999/xlink" width="400" height="419.723865877712" viewBox="0, 0, 400,419.723865877712"><g id="svgg"><path id="path0" d="M189.744 20.211 C 112.910 26.403,52.500 82.590,39.703 159.763 C 37.883 170.739,37.618 231.146,39.334 243.787 C 48.679 312.619,97.064 366.814,163.708 383.095 C 180.835 387.279,183.444 387.377,277.928 387.377 L 365.370 387.377 365.074 277.515 C 364.758 159.915,364.896 164.248,360.900 146.746 C 343.206 69.242,268.319 13.879,189.744 20.211 M223.903 98.977 C 265.080 109.128,293.846 142.311,298.193 184.675 C 298.666 189.279,299.014 213.223,299.014 241.109 L 299.014 289.546 311.243 289.546 L 323.471 289.546 323.540 291.913 C 323.578 293.215,323.609 299.428,323.609 305.720 C 323.609 312.012,323.578 318.047,323.540 319.132 L 323.471 321.105 295.500 321.105 L 267.528 321.105 267.265 251.874 C 266.971 174.467,267.335 179.601,261.190 166.049 C 233.727 105.482,142.169 121.249,136.002 187.608 L 135.474 193.294 119.706 193.294 L 103.938 193.294 104.488 186.785 C 108.261 142.070,141.865 104.776,184.615 97.857 C 187.870 97.330,191.065 96.769,191.716 96.610 C 195.820 95.608,216.366 97.119,223.903 98.977 M209.960 198.444 C 229.159 205.146,234.767 228.492,220.583 242.673 C 203.136 260.116,174.750 248.265,174.865 223.587 C 174.949 205.762,193.288 192.624,209.960 198.444 " stroke="none" fill="solid" fill-rule="evenodd"></path></g></svg>